<svg width="389" height="42" viewBox="0 0 389 42" fill="none" xmlns="http://www.w3.org/2000/svg">
<path d="M200.39 2.00536V40.6658H207.268V28.2137L211.092 24.1114L224.09 40.6658H232.719L215.663 18.95L231.147 2.09454L231.214 2.0388H221.772L207.279 18.2922V2.0388L200.39 2.00536Z" fill="#E8E8E8"/>
<path d="M243.309 11.8154H236.442V40.677H243.309V11.8154Z" fill="#E8E8E8"/>
<path d="M243.398 1.53716H236.275V7.91368H243.398V1.53716Z" fill="#E8E8E8"/>
<path d="M334.966 11.8154H328.099V40.677H334.966V11.8154Z" fill="#E8E8E8"/>
<path d="M335.055 1.53716H327.932V7.91368H335.055V1.53716Z" fill="#E8E8E8"/>
<path d="M266.474 17.7683V11.7931H259.696V3.22046H252.84V11.7931H248.013V17.7683H252.84V29.139H252.807C252.773 29.139 252.84 33.587 252.84 33.587C255.159 44.8908 266.418 40.4094 266.418 40.4094V34.7352C259.462 36.8533 259.73 32.7063 259.73 32.7063V29.139H259.696V17.7683H266.474V17.7683Z" fill="#E8E8E8"/>
<path d="M323.25 26.2406C323.071 23.5428 323.049 20.767 322.135 18.6155C320.151 13.9558 315.926 11.1911 310.642 11.2692C308.836 11.2914 306.807 11.3695 305.012 11.8711V0.85714H298.201V24.3455C298.178 24.914 298.167 25.4937 298.167 26.0622C298.19 30.12 297.721 34.2224 299.862 36.9536C302.058 39.7517 304.666 41.2678 310.63 41.2232C318.88 41.134 323.818 34.6014 323.25 26.2406ZM315.992 30.0197C315.569 31.7699 314.878 34.5903 312.18 34.9804C309.482 35.3706 308.613 35.248 307.219 34.8578C305.826 34.4677 304.978 33.4978 304.978 31.4132C304.978 29.3285 304.99 17.3558 305.034 17.3893C305.034 17.3893 309.694 16.3191 312.046 17.2109C314.175 18.0135 315.736 19.6746 316.059 22.4281C316.383 25.1035 316.416 28.2695 315.992 30.0197Z" fill="#E8E8E8"/>
<path d="M293.719 22.6399C293.719 22.6399 294.355 16.6535 288.502 13.0193C282.649 9.38518 272.851 12.6961 272.148 13.0862V18.7604C272.148 18.7604 276.775 17.0548 281.066 17.2666C285.358 17.4673 286.629 19.5854 286.852 22.6845C286.852 22.6845 284.221 21.9822 279.461 22.4392C274.701 22.8963 271.948 24.0668 270.019 27.7901C268.09 31.5135 269.395 38.8264 276.529 40.6658C283.664 42.5163 288.19 40.0638 288.19 40.0638C288.19 40.0638 293.541 38.2913 293.73 32.2604C293.898 26.2183 293.719 22.6399 293.719 22.6399ZM286.73 31.2348C286.73 31.2348 286.73 34.9582 282.348 35.1142C277.967 35.2703 276.362 33.3194 276.161 31.0787C275.961 28.838 277.655 27.8124 277.655 27.8124C277.655 27.8124 279.216 26.8872 280.888 26.798C283.954 26.6308 285.927 26.7757 286.741 26.9652L286.73 31.2348Z" fill="#E8E8E8"/>
<path d="M388.096 22.6399C388.096 22.6399 388.732 16.6535 382.879 13.0193C377.026 9.38518 367.228 12.6961 366.525 13.0862V18.7604C366.525 18.7604 371.152 17.0548 375.444 17.2666C379.735 17.4673 381.006 19.5854 381.229 22.6845C381.229 22.6845 378.598 21.9822 373.838 22.4392C369.078 22.8963 366.325 24.0668 364.396 27.7901C362.468 31.5135 363.772 38.8264 370.906 40.6658C378.041 42.5163 382.567 40.0638 382.567 40.0638C382.567 40.0638 387.918 38.2913 388.107 32.2604C388.275 26.2183 388.096 22.6399 388.096 22.6399ZM381.107 31.2348C381.107 31.2348 381.107 34.9582 376.726 35.1142C372.344 35.2703 370.739 33.3194 370.527 31.0787C370.327 28.838 372.021 27.8124 372.021 27.8124C372.021 27.8124 373.582 26.8872 375.254 26.798C378.32 26.6308 380.293 26.7757 381.107 26.9652V31.2348Z" fill="#E8E8E8"/>
<path d="M358.688 13.443V18.7047C358.688 18.7047 355.757 17.066 351.52 17.367C347.273 17.6568 347.139 19.251 347.139 19.251C347.139 19.251 346.682 21.0903 348.778 21.8372C350.863 22.5841 355.768 23.5428 357.919 25.6944C360.071 27.8459 360.372 28.8269 360.505 29.5515C360.639 30.2761 361.096 33.6762 360.439 35.2703C359.781 36.8533 359.402 38.1576 356.013 40.0638C352.624 41.9701 346.849 41.0002 346.849 41.0002C346.849 41.0002 342.468 40.0638 341.008 38.9379V32.6729C341.008 32.6729 343.962 34.6014 346.069 34.8913C348.176 35.1811 350.718 35.4821 352.513 34.8244C354.307 34.1667 353.917 32.0597 353.917 32.0597C353.917 32.0597 353.438 30.3987 350.941 29.6741C348.444 28.9495 344.954 28.158 342.368 25.9954C339.782 23.8438 340.094 20.4884 340.094 20.4884C340.094 20.4884 339.771 17.0437 341.978 14.7918C344.174 12.5511 346.381 11.5924 349.625 11.3918C352.88 11.2023 355.667 11.6036 358.688 13.443Z" fill="#E8E8E8"/>
<path d="M183.66 41.1429C183.302 41.1429 183.015 41.0355 182.8 40.8206C182.586 40.6058 182.478 40.3193 182.478 39.9612V14.3932C182.478 14.0351 182.586 13.7486 182.8 13.5338C183.015 13.3189 183.302 13.2115 183.66 13.2115H184.573C184.931 13.2115 185.218 13.3189 185.432 13.5338C185.647 13.7486 185.755 14.0351 185.755 14.3932V39.9612C185.755 40.3193 185.647 40.6058 185.432 40.8206C185.218 41.0355 184.931 41.1429 184.573 41.1429H183.66ZM183.069 7.46405C182.711 7.46405 182.424 7.35662 182.21 7.14177C181.995 6.92691 181.887 6.64043 181.887 6.28233V4.24119C181.887 3.8831 181.995 3.59662 182.21 3.38177C182.424 3.1311 182.711 3.00576 183.069 3.00576H185.11C185.468 3.00576 185.755 3.1311 185.97 3.38177C186.22 3.59662 186.346 3.8831 186.346 4.24119V6.28233C186.346 6.64043 186.22 6.92691 185.97 7.14177C185.755 7.35662 185.468 7.46405 185.11 7.46405H183.069Z" fill="#E8E8E8"/>
<path d="M167.589 41.6801C165.727 41.6801 164.116 41.4294 162.755 40.9281C161.43 40.4267 160.338 39.8359 159.478 39.1555C158.619 38.4393 157.974 37.741 157.545 37.0606C157.151 36.3803 156.936 35.861 156.9 35.5029C156.864 35.109 156.989 34.8225 157.276 34.6435C157.562 34.4286 157.831 34.3212 158.082 34.3212H158.887C159.102 34.3212 159.281 34.357 159.425 34.4286C159.604 34.5003 159.818 34.6972 160.069 35.0195C160.535 35.6283 161.072 36.2191 161.681 36.7921C162.289 37.3292 163.059 37.7589 163.99 38.0812C164.957 38.4035 166.157 38.5646 167.589 38.5646C169.738 38.5646 171.51 38.1528 172.907 37.3292C174.303 36.5056 175.002 35.2881 175.002 33.6766C175.002 32.674 174.715 31.8683 174.142 31.2595C173.605 30.6507 172.674 30.1136 171.349 29.6481C170.024 29.1825 168.234 28.6991 165.978 28.1978C163.722 27.6606 161.985 27.0161 160.767 26.2641C159.586 25.5121 158.78 24.6526 158.35 23.6858C157.921 22.6831 157.706 21.6088 157.706 20.4629C157.706 19.2096 158.064 17.9921 158.78 16.8104C159.496 15.5928 160.553 14.6081 161.949 13.8561C163.381 13.0683 165.172 12.6744 167.321 12.6744C169.075 12.6744 170.561 12.9071 171.779 13.3726C173.032 13.8382 174.053 14.4111 174.841 15.0915C175.628 15.7361 176.201 16.3806 176.559 17.0252C176.953 17.6698 177.168 18.189 177.204 18.5829C177.24 18.941 177.132 19.2275 176.882 19.4424C176.631 19.6572 176.345 19.7646 176.022 19.7646H175.217C174.93 19.7646 174.697 19.7109 174.518 19.6035C174.339 19.4603 174.178 19.2812 174.035 19.0664C173.677 18.4934 173.247 17.9563 172.746 17.4549C172.244 16.9536 171.564 16.5597 170.705 16.2732C169.881 15.9509 168.753 15.7898 167.321 15.7898C165.172 15.7898 163.578 16.2374 162.54 17.1326C161.501 17.9921 160.982 19.1022 160.982 20.4629C160.982 21.2507 161.197 21.949 161.627 22.5578C162.057 23.1307 162.862 23.6679 164.044 24.1692C165.226 24.6347 166.945 25.1361 169.201 25.6732C171.492 26.1745 173.301 26.8012 174.626 27.5532C175.951 28.2694 176.882 29.1288 177.419 30.1315C177.992 31.1342 178.278 32.3159 178.278 33.6766C178.278 35.109 177.866 36.434 177.043 37.6515C176.255 38.869 175.055 39.8538 173.444 40.6058C171.868 41.322 169.917 41.6801 167.589 41.6801Z" fill="#E8E8E8"/>
<path d="M130.911 41.1429C130.553 41.1429 130.266 41.0355 130.051 40.8206C129.836 40.6058 129.729 40.3193 129.729 39.9612V14.3932C129.729 14.0351 129.836 13.7486 130.051 13.5338C130.266 13.3189 130.553 13.2115 130.911 13.2115H131.824C132.182 13.2115 132.468 13.3189 132.683 13.5338C132.898 13.7486 133.006 14.0351 133.006 14.3932V16.9178C133.973 15.6644 135.136 14.6439 136.497 13.8561C137.894 13.0683 139.738 12.6744 142.03 12.6744C144.465 12.6744 146.488 13.2115 148.099 14.2858C149.747 15.3243 150.964 16.7566 151.752 18.5829C152.576 20.3734 152.987 22.4145 152.987 24.7064V39.9612C152.987 40.3193 152.88 40.6058 152.665 40.8206C152.45 41.0355 152.164 41.1429 151.806 41.1429H150.892C150.534 41.1429 150.248 41.0355 150.033 40.8206C149.818 40.6058 149.711 40.3193 149.711 39.9612V24.9749C149.711 22.1102 149.013 19.8721 147.616 18.2606C146.219 16.6134 144.178 15.7898 141.493 15.7898C138.95 15.7898 136.891 16.6134 135.315 18.2606C133.776 19.8721 133.006 22.1102 133.006 24.9749V39.9612C133.006 40.3193 132.898 40.6058 132.683 40.8206C132.468 41.0355 132.182 41.1429 131.824 41.1429H130.911Z" fill="#E8E8E8"/>
<path d="M111.137 41.6801C109.418 41.6801 107.825 41.322 106.356 40.6058C104.924 39.8896 103.76 38.9406 102.865 37.7589C101.97 36.5414 101.522 35.1806 101.522 33.6766C101.522 31.2416 102.507 29.29 104.476 27.8218C106.446 26.3536 109.006 25.4046 112.157 24.9749L120.644 23.7932V21.9132C120.644 20.0153 120.053 18.5292 118.872 17.4549C117.726 16.3448 115.882 15.7898 113.339 15.7898C111.477 15.7898 109.973 16.1658 108.827 16.9178C107.681 17.634 106.893 18.5829 106.464 19.7646C106.285 20.3018 105.945 20.5704 105.443 20.5704H104.584C104.154 20.5704 103.85 20.4629 103.671 20.2481C103.492 19.9974 103.402 19.7109 103.402 19.3886C103.402 18.8873 103.581 18.2606 103.939 17.5086C104.333 16.7566 104.924 16.0225 105.712 15.3064C106.5 14.5544 107.52 13.9277 108.773 13.4264C110.027 12.925 111.549 12.6744 113.339 12.6744C115.452 12.6744 117.189 12.9608 118.549 13.5338C119.946 14.1067 121.02 14.8587 121.772 15.7898C122.56 16.685 123.115 17.6877 123.437 18.7978C123.76 19.9079 123.921 21.0001 123.921 22.0744V39.9612C123.921 40.3193 123.813 40.6058 123.599 40.8206C123.384 41.0355 123.097 41.1429 122.739 41.1429H121.826C121.468 41.1429 121.181 41.0355 120.967 40.8206C120.752 40.6058 120.644 40.3193 120.644 39.9612V37.4366C120.215 38.0812 119.606 38.7258 118.818 39.3704C118.03 40.0149 117.01 40.57 115.756 41.0355C114.539 41.4652 112.999 41.6801 111.137 41.6801ZM111.674 38.5646C113.321 38.5646 114.825 38.2065 116.186 37.4904C117.547 36.7742 118.621 35.682 119.409 34.2138C120.233 32.7098 120.644 30.8298 120.644 28.5738V26.7475L113.715 27.7144C110.779 28.1083 108.559 28.7886 107.055 29.7555C105.551 30.7224 104.799 31.9399 104.799 33.4081C104.799 34.5898 105.139 35.5566 105.819 36.3086C106.5 37.0606 107.359 37.6336 108.397 38.0275C109.472 38.3856 110.564 38.5646 111.674 38.5646Z" fill="#E8E8E8"/>
<path d="M89.2297 41.143C88.8716 41.143 88.5851 41.0356 88.3703 40.8208C88.1554 40.6059 88.048 40.3194 88.048 39.9613V14.447C88.048 14.0889 88.1554 13.8025 88.3703 13.5876C88.5851 13.3369 88.8716 13.2116 89.2297 13.2116H90.0891C90.4472 13.2116 90.7337 13.3369 90.9485 13.5876C91.1992 13.8025 91.3245 14.0889 91.3245 14.447V16.9179C91.9691 15.6646 92.9002 14.7335 94.1177 14.1248C95.3352 13.516 96.8392 13.2116 98.6297 13.2116H100.617C100.975 13.2116 101.262 13.319 101.477 13.5339C101.691 13.7488 101.799 14.0352 101.799 14.3933V15.1453C101.799 15.5034 101.691 15.7899 101.477 16.0048C101.262 16.2196 100.975 16.327 100.617 16.327H98.3074C96.1588 16.327 94.4579 16.9537 93.2045 18.207C91.9512 19.4604 91.3245 21.1613 91.3245 23.3099V39.9613C91.3245 40.3194 91.1992 40.6059 90.9485 40.8208C90.7337 41.0356 90.4472 41.143 90.0891 41.143H89.2297Z" fill="#E8E8E8"/>
<path d="M69.7871 41.6802C67.3521 41.6802 65.3288 41.1609 63.7174 40.1225C62.1418 39.0482 60.9601 37.5979 60.1723 35.7716C59.4203 33.9453 59.0443 31.9042 59.0443 29.6482V14.3933C59.0443 14.0352 59.1517 13.7488 59.3665 13.5339C59.5814 13.319 59.8679 13.2116 60.226 13.2116H61.1391C61.4972 13.2116 61.7837 13.319 61.9985 13.5339C62.2134 13.7488 62.3208 14.0352 62.3208 14.3933V29.3796C62.3208 35.503 64.9886 38.5648 70.3243 38.5648C72.8667 38.5648 74.9079 37.759 76.4477 36.1476C77.9875 34.5004 78.7574 32.2444 78.7574 29.3796V14.3933C78.7574 14.0352 78.8648 13.7488 79.0797 13.5339C79.2945 13.319 79.581 13.2116 79.9391 13.2116H80.8523C81.2103 13.2116 81.4968 13.319 81.7117 13.5339C81.9265 13.7488 82.034 14.0352 82.034 14.3933V39.9613C82.034 40.3194 81.9265 40.6059 81.7117 40.8208C81.4968 41.0356 81.2103 41.143 80.8523 41.143H79.9391C79.581 41.143 79.2945 41.0356 79.0797 40.8208C78.8648 40.6059 78.7574 40.3194 78.7574 39.9613V37.4368C77.7905 38.6901 76.6267 39.7107 75.266 40.4985C73.941 41.2863 72.1147 41.6802 69.7871 41.6802Z" fill="#E8E8E8"/>
<path d="M44.4239 41.6801C42.5618 41.6801 40.9504 41.4294 39.5896 40.9281C38.2647 40.4267 37.1725 39.8359 36.3131 39.1555C35.4536 38.4393 34.8091 37.741 34.3794 37.0606C33.9855 36.3803 33.7706 35.861 33.7348 35.5029C33.699 35.109 33.8243 34.8225 34.1108 34.6435C34.3973 34.4286 34.6658 34.3212 34.9165 34.3212H35.7222C35.9371 34.3212 36.1161 34.357 36.2594 34.4286C36.4384 34.5003 36.6533 34.6972 36.9039 35.0195C37.3695 35.6283 37.9066 36.2191 38.5154 36.7921C39.1241 37.3292 39.894 37.7589 40.8251 38.0812C41.7919 38.4035 42.9916 38.5646 44.4239 38.5646C46.5725 38.5646 48.3451 38.1528 49.7416 37.3292C51.1382 36.5056 51.8365 35.2881 51.8365 33.6766C51.8365 32.674 51.55 31.8683 50.9771 31.2595C50.4399 30.6507 49.5089 30.1136 48.1839 29.6481C46.859 29.1825 45.0685 28.6991 42.8125 28.1978C40.5565 27.6606 38.8197 27.0161 37.6022 26.2641C36.4205 25.5121 35.6148 24.6526 35.1851 23.6858C34.7554 22.6831 34.5405 21.6088 34.5405 20.4629C34.5405 19.2096 34.8986 17.9921 35.6148 16.8104C36.331 15.5928 37.3874 14.6081 38.7839 13.8561C40.2163 13.0683 42.0068 12.6744 44.1554 12.6744C45.91 12.6744 47.3961 12.9071 48.6136 13.3726C49.867 13.8382 50.8876 14.4111 51.6754 15.0915C52.4632 15.7361 53.0361 16.3806 53.3942 17.0252C53.7881 17.6698 54.003 18.189 54.0388 18.5829C54.0746 18.941 53.9672 19.2275 53.7165 19.4424C53.4658 19.6572 53.1794 19.7646 52.8571 19.7646H52.0514C51.7649 19.7646 51.5321 19.7109 51.3531 19.6035C51.174 19.4603 51.0129 19.2812 50.8696 19.0664C50.5116 18.4934 50.0818 17.9563 49.5805 17.4549C49.0792 16.9536 48.3988 16.5597 47.5394 16.2732C46.7157 15.9509 45.5877 15.7898 44.1554 15.7898C42.0068 15.7898 40.4133 16.2374 39.3748 17.1326C38.3363 17.9921 37.8171 19.1022 37.8171 20.4629C37.8171 21.2507 38.0319 21.949 38.4616 22.5578C38.8914 23.1307 39.6971 23.6679 40.8788 24.1692C42.0605 24.6347 43.7794 25.1361 46.0354 25.6732C48.3272 26.1745 50.1356 26.8012 51.4605 27.5532C52.7855 28.2694 53.7165 29.1288 54.2536 30.1315C54.8266 31.1342 55.1131 32.3159 55.1131 33.6766C55.1131 35.109 54.7013 36.434 53.8776 37.6515C53.0898 38.869 51.8902 39.8538 50.2788 40.6058C48.7032 41.322 46.7516 41.6801 44.4239 41.6801Z" fill="#E8E8E8"/>
<path d="M1.32429 41.143C1.03781 41.143 0.787143 41.0356 0.572286 40.8207C0.357429 40.6059 0.25 40.3552 0.25 40.0687C0.25 39.8897 0.28581 39.6927 0.357429 39.4779L13.9471 4.61731C14.0904 4.25921 14.2694 3.99064 14.4843 3.81159C14.735 3.63255 15.0751 3.54302 15.5049 3.54302H17.3311C17.7609 3.54302 18.0831 3.63255 18.298 3.81159C18.5487 3.99064 18.7456 4.25921 18.8889 4.61731L32.4786 39.4779C32.5502 39.6927 32.586 39.8897 32.586 40.0687C32.586 40.3552 32.4786 40.6059 32.2637 40.8207C32.0489 41.0356 31.7982 41.143 31.5117 41.143H30.4374C30.0793 41.143 29.8108 41.0535 29.6317 40.8745C29.4527 40.6596 29.3273 40.4806 29.2557 40.3373L25.9254 31.743H6.91057L3.58029 40.3373C3.54448 40.4806 3.41914 40.6596 3.20429 40.8745C3.02524 41.0535 2.75667 41.143 2.39857 41.143H1.32429ZM8.19971 28.5202H24.6363L16.418 7.35674L8.19971 28.5202Z" fill="#E8E8E8"/>
</svg>
